# xmcd CD database file
#
# Track frame offsets:
#	150
#	19600
#	47046
#	75790
#	96560
#	123505
#	147368
#	154114
#	171709
#	178907
#	192748
#	204914
#	234828
#	255667
#	274388
#	287257
#	301954
#	315693
#	331423
#	338623
#
# Disc length: 4701 seconds
#
# Revision: 3
# Processed by: cddbd v1.5.2PL0 Copyright (c) Steve Scherf et al.
# Submitted via: CDex 1.51
#
DISCID=1f125b14
DTITLE=Tchaikovsky - Best Tchaikovsky - Vol.4-6 ~ Opera and Song
DYEAR=2010
DGENRE=Classique
TTITLE0=Eugene Onegin - Tatiana's letter scene  (Act I)
TTITLE1=Eugene Onegin - Waltz  (Act II)
TTITLE2=Eugene Onegin - Lensky's Aria  (Acte II)
TTITLE3=Eugene Onegin - Polonaise  (Act III)
TTITLE4=Eugene Onegin - Prince Gremin's Aria   (Act III)
TTITLE5=Queen of Spades - It will soon be midnight  (Act III)
TTITLE6=The Snow Maiden - Lel's Song
TTITLE7=Mazeppa - Gopak  (Act I)
TTITLE8=O moonlit night Op.73 n°3
TTITLE9=At the ball Op.38 n°3
TTITLE10=Don Juan's Serenade Op.38 n°1
TTITLE11=Was I not a little blade of grass ? Op.47 n°7
TTITLE12=Cradle song Op.16 n°1
TTITLE13=Why ? Op.6 n°5
TTITLE14=Again, as before, alone, Op.73 n°6
TTITLE15=None but the lonely heart Op.6 n°6
TTITLE16=Serenade Op.63 n°6
TTITLE17=The Nightingale Op.60 n°4
TTITLE18=I should like in a single word
TTITLE19=Does the day reign ? Op.47 n°6
EXTD=CD 4: Opera and songs YEAR: 2010
EXTT0=
EXTT1=
EXTT2=
EXTT3=
EXTT4=
EXTT5=
EXTT6=
EXTT7=
EXTT8=
EXTT9=
EXTT10=
EXTT11=
EXTT12=
EXTT13=
EXTT14=
EXTT15=
EXTT16=
EXTT17=
EXTT18=
EXTT19=
PLAYORDER=
